<mxfile host="app.diagrams.net" modified="2024-01-08T09:45:00.425Z" agent="Mozilla/5.0 (Windows NT 10.0; Win64; x64) AppleWebKit/537.36 (KHTML, like Gecko) Chrome/120.0.0.0 Safari/537.36 Edg/120.0.0.0" etag="0J1qtsfYlNfE3WfiCIFx" version="22.1.17" type="device">
  <diagram name="Page-1" id="LOWEnYynPxril9GLaBs4">
    <mxGraphModel dx="1188" dy="754" grid="1" gridSize="10" guides="1" tooltips="1" connect="1" arrows="1" fold="1" page="1" pageScale="1" pageWidth="850" pageHeight="1100" math="0" shadow="0">
      <root>
        <mxCell id="0" />
        <mxCell id="1" parent="0" />
        <mxCell id="EKwU7zrqf9ErRtjPEEoi-3" value="&lt;b&gt;Original grid&lt;/b&gt;&lt;br&gt;(latitude, longitude, time, feat)" style="rounded=1;whiteSpace=wrap;html=1;" vertex="1" parent="1">
          <mxGeometry x="120" y="160" width="190" height="40" as="geometry" />
        </mxCell>
        <mxCell id="EKwU7zrqf9ErRtjPEEoi-4" value="&lt;b&gt;Sampled and reshaped grid&lt;br&gt;&lt;/b&gt;(gridcell, time, feat)" style="rounded=1;whiteSpace=wrap;html=1;" vertex="1" parent="1">
          <mxGeometry x="120" y="330" width="190" height="30" as="geometry" />
        </mxCell>
        <mxCell id="EKwU7zrqf9ErRtjPEEoi-5" value="&lt;b&gt;Grid with no missing values&lt;br&gt;&lt;/b&gt;(gridcell, time, feat)" style="rounded=1;whiteSpace=wrap;html=1;" vertex="1" parent="1">
          <mxGeometry x="120" y="500" width="190" height="30" as="geometry" />
        </mxCell>
        <mxCell id="EKwU7zrqf9ErRtjPEEoi-6" value="" style="shape=table;startSize=0;container=1;collapsible=0;childLayout=tableLayout;fontSize=16;" vertex="1" parent="1">
          <mxGeometry x="360" y="160" width="110" height="80" as="geometry" />
        </mxCell>
        <mxCell id="EKwU7zrqf9ErRtjPEEoi-7" value="" style="shape=tableRow;horizontal=0;startSize=0;swimlaneHead=0;swimlaneBody=0;strokeColor=inherit;top=0;left=0;bottom=0;right=0;collapsible=0;dropTarget=0;fillColor=none;points=[[0,0.5],[1,0.5]];portConstraint=eastwest;fontSize=16;" vertex="1" parent="EKwU7zrqf9ErRtjPEEoi-6">
          <mxGeometry width="110" height="20" as="geometry" />
        </mxCell>
        <mxCell id="EKwU7zrqf9ErRtjPEEoi-8" value="" style="shape=partialRectangle;html=1;whiteSpace=wrap;connectable=0;strokeColor=#82b366;overflow=hidden;fillColor=#d5e8d4;top=0;left=0;bottom=0;right=0;pointerEvents=1;fontSize=16;perimeterSpacing=2;" vertex="1" parent="EKwU7zrqf9ErRtjPEEoi-7">
          <mxGeometry width="36" height="20" as="geometry">
            <mxRectangle width="36" height="20" as="alternateBounds" />
          </mxGeometry>
        </mxCell>
        <mxCell id="EKwU7zrqf9ErRtjPEEoi-9" value="" style="shape=partialRectangle;html=1;whiteSpace=wrap;connectable=0;strokeColor=#82b366;overflow=hidden;fillColor=#d5e8d4;top=0;left=0;bottom=0;right=0;pointerEvents=1;fontSize=16;perimeterSpacing=2;" vertex="1" parent="EKwU7zrqf9ErRtjPEEoi-7">
          <mxGeometry x="36" width="38" height="20" as="geometry">
            <mxRectangle width="38" height="20" as="alternateBounds" />
          </mxGeometry>
        </mxCell>
        <mxCell id="EKwU7zrqf9ErRtjPEEoi-10" value="" style="shape=partialRectangle;html=1;whiteSpace=wrap;connectable=0;strokeColor=#82b366;overflow=hidden;fillColor=#d5e8d4;top=0;left=0;bottom=0;right=0;pointerEvents=1;fontSize=16;perimeterSpacing=2;" vertex="1" parent="EKwU7zrqf9ErRtjPEEoi-7">
          <mxGeometry x="74" width="36" height="20" as="geometry">
            <mxRectangle width="36" height="20" as="alternateBounds" />
          </mxGeometry>
        </mxCell>
        <mxCell id="EKwU7zrqf9ErRtjPEEoi-32" value="" style="shape=tableRow;horizontal=0;startSize=0;swimlaneHead=0;swimlaneBody=0;strokeColor=inherit;top=0;left=0;bottom=0;right=0;collapsible=0;dropTarget=0;fillColor=none;points=[[0,0.5],[1,0.5]];portConstraint=eastwest;fontSize=16;" vertex="1" parent="EKwU7zrqf9ErRtjPEEoi-6">
          <mxGeometry y="20" width="110" height="20" as="geometry" />
        </mxCell>
        <mxCell id="EKwU7zrqf9ErRtjPEEoi-33" value="" style="shape=partialRectangle;html=1;whiteSpace=wrap;connectable=0;strokeColor=#82b366;overflow=hidden;fillColor=#d5e8d4;top=0;left=0;bottom=0;right=0;pointerEvents=1;fontSize=16;perimeterSpacing=2;" vertex="1" parent="EKwU7zrqf9ErRtjPEEoi-32">
          <mxGeometry width="36" height="20" as="geometry">
            <mxRectangle width="36" height="20" as="alternateBounds" />
          </mxGeometry>
        </mxCell>
        <mxCell id="EKwU7zrqf9ErRtjPEEoi-34" value="" style="shape=partialRectangle;html=1;whiteSpace=wrap;connectable=0;strokeColor=#82b366;overflow=hidden;fillColor=#d5e8d4;top=0;left=0;bottom=0;right=0;pointerEvents=1;fontSize=16;perimeterSpacing=2;" vertex="1" parent="EKwU7zrqf9ErRtjPEEoi-32">
          <mxGeometry x="36" width="38" height="20" as="geometry">
            <mxRectangle width="38" height="20" as="alternateBounds" />
          </mxGeometry>
        </mxCell>
        <mxCell id="EKwU7zrqf9ErRtjPEEoi-35" value="" style="shape=partialRectangle;html=1;whiteSpace=wrap;connectable=0;strokeColor=#82b366;overflow=hidden;fillColor=#d5e8d4;top=0;left=0;bottom=0;right=0;pointerEvents=1;fontSize=16;perimeterSpacing=2;" vertex="1" parent="EKwU7zrqf9ErRtjPEEoi-32">
          <mxGeometry x="74" width="36" height="20" as="geometry">
            <mxRectangle width="36" height="20" as="alternateBounds" />
          </mxGeometry>
        </mxCell>
        <mxCell id="EKwU7zrqf9ErRtjPEEoi-11" value="" style="shape=tableRow;horizontal=0;startSize=0;swimlaneHead=0;swimlaneBody=0;strokeColor=inherit;top=0;left=0;bottom=0;right=0;collapsible=0;dropTarget=0;fillColor=none;points=[[0,0.5],[1,0.5]];portConstraint=eastwest;fontSize=16;" vertex="1" parent="EKwU7zrqf9ErRtjPEEoi-6">
          <mxGeometry y="40" width="110" height="20" as="geometry" />
        </mxCell>
        <mxCell id="EKwU7zrqf9ErRtjPEEoi-12" value="" style="shape=partialRectangle;html=1;whiteSpace=wrap;connectable=0;strokeColor=#82b366;overflow=hidden;fillColor=#d5e8d4;top=0;left=0;bottom=0;right=0;pointerEvents=1;fontSize=16;perimeterSpacing=2;" vertex="1" parent="EKwU7zrqf9ErRtjPEEoi-11">
          <mxGeometry width="36" height="20" as="geometry">
            <mxRectangle width="36" height="20" as="alternateBounds" />
          </mxGeometry>
        </mxCell>
        <mxCell id="EKwU7zrqf9ErRtjPEEoi-13" value="" style="shape=partialRectangle;html=1;whiteSpace=wrap;connectable=0;strokeColor=#82b366;overflow=hidden;fillColor=#d5e8d4;top=0;left=0;bottom=0;right=0;pointerEvents=1;fontSize=16;perimeterSpacing=2;" vertex="1" parent="EKwU7zrqf9ErRtjPEEoi-11">
          <mxGeometry x="36" width="38" height="20" as="geometry">
            <mxRectangle width="38" height="20" as="alternateBounds" />
          </mxGeometry>
        </mxCell>
        <mxCell id="EKwU7zrqf9ErRtjPEEoi-14" value="" style="shape=partialRectangle;html=1;whiteSpace=wrap;connectable=0;strokeColor=#82b366;overflow=hidden;fillColor=#d5e8d4;top=0;left=0;bottom=0;right=0;pointerEvents=1;fontSize=16;perimeterSpacing=2;" vertex="1" parent="EKwU7zrqf9ErRtjPEEoi-11">
          <mxGeometry x="74" width="36" height="20" as="geometry">
            <mxRectangle width="36" height="20" as="alternateBounds" />
          </mxGeometry>
        </mxCell>
        <mxCell id="EKwU7zrqf9ErRtjPEEoi-15" value="" style="shape=tableRow;horizontal=0;startSize=0;swimlaneHead=0;swimlaneBody=0;strokeColor=inherit;top=0;left=0;bottom=0;right=0;collapsible=0;dropTarget=0;fillColor=none;points=[[0,0.5],[1,0.5]];portConstraint=eastwest;fontSize=16;" vertex="1" parent="EKwU7zrqf9ErRtjPEEoi-6">
          <mxGeometry y="60" width="110" height="20" as="geometry" />
        </mxCell>
        <mxCell id="EKwU7zrqf9ErRtjPEEoi-16" value="" style="shape=partialRectangle;html=1;whiteSpace=wrap;connectable=0;strokeColor=#82b366;overflow=hidden;fillColor=#d5e8d4;top=0;left=0;bottom=0;right=0;pointerEvents=1;fontSize=16;perimeterSpacing=2;" vertex="1" parent="EKwU7zrqf9ErRtjPEEoi-15">
          <mxGeometry width="36" height="20" as="geometry">
            <mxRectangle width="36" height="20" as="alternateBounds" />
          </mxGeometry>
        </mxCell>
        <mxCell id="EKwU7zrqf9ErRtjPEEoi-17" value="" style="shape=partialRectangle;html=1;whiteSpace=wrap;connectable=0;strokeColor=#82b366;overflow=hidden;fillColor=#d5e8d4;top=0;left=0;bottom=0;right=0;pointerEvents=1;fontSize=16;perimeterSpacing=2;" vertex="1" parent="EKwU7zrqf9ErRtjPEEoi-15">
          <mxGeometry x="36" width="38" height="20" as="geometry">
            <mxRectangle width="38" height="20" as="alternateBounds" />
          </mxGeometry>
        </mxCell>
        <mxCell id="EKwU7zrqf9ErRtjPEEoi-18" value="" style="shape=partialRectangle;html=1;whiteSpace=wrap;connectable=0;strokeColor=#82b366;overflow=hidden;fillColor=#d5e8d4;top=0;left=0;bottom=0;right=0;pointerEvents=1;fontSize=16;perimeterSpacing=2;" vertex="1" parent="EKwU7zrqf9ErRtjPEEoi-15">
          <mxGeometry x="74" width="36" height="20" as="geometry">
            <mxRectangle width="36" height="20" as="alternateBounds" />
          </mxGeometry>
        </mxCell>
        <mxCell id="EKwU7zrqf9ErRtjPEEoi-74" value="" style="shape=table;startSize=0;container=1;collapsible=0;childLayout=tableLayout;fontSize=16;" vertex="1" parent="1">
          <mxGeometry x="360" y="490" width="110" height="80" as="geometry" />
        </mxCell>
        <mxCell id="EKwU7zrqf9ErRtjPEEoi-75" value="" style="shape=tableRow;horizontal=0;startSize=0;swimlaneHead=0;swimlaneBody=0;strokeColor=inherit;top=0;left=0;bottom=0;right=0;collapsible=0;dropTarget=0;fillColor=none;points=[[0,0.5],[1,0.5]];portConstraint=eastwest;fontSize=16;" vertex="1" parent="EKwU7zrqf9ErRtjPEEoi-74">
          <mxGeometry width="110" height="20" as="geometry" />
        </mxCell>
        <mxCell id="EKwU7zrqf9ErRtjPEEoi-76" value="x" style="shape=partialRectangle;html=1;whiteSpace=wrap;connectable=0;strokeColor=#b85450;overflow=hidden;fillColor=#f8cecc;top=0;left=0;bottom=0;right=0;pointerEvents=1;fontSize=16;" vertex="1" parent="EKwU7zrqf9ErRtjPEEoi-75">
          <mxGeometry width="36" height="20" as="geometry">
            <mxRectangle width="36" height="20" as="alternateBounds" />
          </mxGeometry>
        </mxCell>
        <mxCell id="EKwU7zrqf9ErRtjPEEoi-77" value="" style="shape=partialRectangle;html=1;whiteSpace=wrap;connectable=0;strokeColor=inherit;overflow=hidden;fillColor=none;top=0;left=0;bottom=0;right=0;pointerEvents=1;fontSize=16;" vertex="1" parent="EKwU7zrqf9ErRtjPEEoi-75">
          <mxGeometry x="36" width="38" height="20" as="geometry">
            <mxRectangle width="38" height="20" as="alternateBounds" />
          </mxGeometry>
        </mxCell>
        <mxCell id="EKwU7zrqf9ErRtjPEEoi-78" value="o" style="shape=partialRectangle;html=1;whiteSpace=wrap;connectable=0;strokeColor=#82b366;overflow=hidden;fillColor=#d5e8d4;top=0;left=0;bottom=0;right=0;pointerEvents=1;fontSize=16;" vertex="1" parent="EKwU7zrqf9ErRtjPEEoi-75">
          <mxGeometry x="74" width="36" height="20" as="geometry">
            <mxRectangle width="36" height="20" as="alternateBounds" />
          </mxGeometry>
        </mxCell>
        <mxCell id="EKwU7zrqf9ErRtjPEEoi-79" value="" style="shape=tableRow;horizontal=0;startSize=0;swimlaneHead=0;swimlaneBody=0;strokeColor=inherit;top=0;left=0;bottom=0;right=0;collapsible=0;dropTarget=0;fillColor=none;points=[[0,0.5],[1,0.5]];portConstraint=eastwest;fontSize=16;" vertex="1" parent="EKwU7zrqf9ErRtjPEEoi-74">
          <mxGeometry y="20" width="110" height="20" as="geometry" />
        </mxCell>
        <mxCell id="EKwU7zrqf9ErRtjPEEoi-80" value="" style="shape=partialRectangle;html=1;whiteSpace=wrap;connectable=0;strokeColor=inherit;overflow=hidden;fillColor=none;top=0;left=0;bottom=0;right=0;pointerEvents=1;fontSize=16;" vertex="1" parent="EKwU7zrqf9ErRtjPEEoi-79">
          <mxGeometry width="36" height="20" as="geometry">
            <mxRectangle width="36" height="20" as="alternateBounds" />
          </mxGeometry>
        </mxCell>
        <mxCell id="EKwU7zrqf9ErRtjPEEoi-81" value="o" style="shape=partialRectangle;html=1;whiteSpace=wrap;connectable=0;strokeColor=#82b366;overflow=hidden;fillColor=#d5e8d4;top=0;left=0;bottom=0;right=0;pointerEvents=1;fontSize=16;" vertex="1" parent="EKwU7zrqf9ErRtjPEEoi-79">
          <mxGeometry x="36" width="38" height="20" as="geometry">
            <mxRectangle width="38" height="20" as="alternateBounds" />
          </mxGeometry>
        </mxCell>
        <mxCell id="EKwU7zrqf9ErRtjPEEoi-82" value="" style="shape=partialRectangle;html=1;whiteSpace=wrap;connectable=0;strokeColor=inherit;overflow=hidden;fillColor=none;top=0;left=0;bottom=0;right=0;pointerEvents=1;fontSize=16;" vertex="1" parent="EKwU7zrqf9ErRtjPEEoi-79">
          <mxGeometry x="74" width="36" height="20" as="geometry">
            <mxRectangle width="36" height="20" as="alternateBounds" />
          </mxGeometry>
        </mxCell>
        <mxCell id="EKwU7zrqf9ErRtjPEEoi-83" value="" style="shape=tableRow;horizontal=0;startSize=0;swimlaneHead=0;swimlaneBody=0;strokeColor=inherit;top=0;left=0;bottom=0;right=0;collapsible=0;dropTarget=0;fillColor=none;points=[[0,0.5],[1,0.5]];portConstraint=eastwest;fontSize=16;" vertex="1" parent="EKwU7zrqf9ErRtjPEEoi-74">
          <mxGeometry y="40" width="110" height="20" as="geometry" />
        </mxCell>
        <mxCell id="EKwU7zrqf9ErRtjPEEoi-84" value="o" style="shape=partialRectangle;html=1;whiteSpace=wrap;connectable=0;strokeColor=#82b366;overflow=hidden;fillColor=#d5e8d4;top=0;left=0;bottom=0;right=0;pointerEvents=1;fontSize=16;" vertex="1" parent="EKwU7zrqf9ErRtjPEEoi-83">
          <mxGeometry width="36" height="20" as="geometry">
            <mxRectangle width="36" height="20" as="alternateBounds" />
          </mxGeometry>
        </mxCell>
        <mxCell id="EKwU7zrqf9ErRtjPEEoi-85" value="" style="shape=partialRectangle;html=1;whiteSpace=wrap;connectable=0;strokeColor=inherit;overflow=hidden;fillColor=none;top=0;left=0;bottom=0;right=0;pointerEvents=1;fontSize=16;" vertex="1" parent="EKwU7zrqf9ErRtjPEEoi-83">
          <mxGeometry x="36" width="38" height="20" as="geometry">
            <mxRectangle width="38" height="20" as="alternateBounds" />
          </mxGeometry>
        </mxCell>
        <mxCell id="EKwU7zrqf9ErRtjPEEoi-86" value="x" style="shape=partialRectangle;html=1;whiteSpace=wrap;connectable=0;strokeColor=#b85450;overflow=hidden;fillColor=#f8cecc;top=0;left=0;bottom=0;right=0;pointerEvents=1;fontSize=16;" vertex="1" parent="EKwU7zrqf9ErRtjPEEoi-83">
          <mxGeometry x="74" width="36" height="20" as="geometry">
            <mxRectangle width="36" height="20" as="alternateBounds" />
          </mxGeometry>
        </mxCell>
        <mxCell id="EKwU7zrqf9ErRtjPEEoi-87" value="" style="shape=tableRow;horizontal=0;startSize=0;swimlaneHead=0;swimlaneBody=0;strokeColor=inherit;top=0;left=0;bottom=0;right=0;collapsible=0;dropTarget=0;fillColor=none;points=[[0,0.5],[1,0.5]];portConstraint=eastwest;fontSize=16;" vertex="1" parent="EKwU7zrqf9ErRtjPEEoi-74">
          <mxGeometry y="60" width="110" height="20" as="geometry" />
        </mxCell>
        <mxCell id="EKwU7zrqf9ErRtjPEEoi-88" value="" style="shape=partialRectangle;html=1;whiteSpace=wrap;connectable=0;strokeColor=inherit;overflow=hidden;fillColor=none;top=0;left=0;bottom=0;right=0;pointerEvents=1;fontSize=16;" vertex="1" parent="EKwU7zrqf9ErRtjPEEoi-87">
          <mxGeometry width="36" height="20" as="geometry">
            <mxRectangle width="36" height="20" as="alternateBounds" />
          </mxGeometry>
        </mxCell>
        <mxCell id="EKwU7zrqf9ErRtjPEEoi-89" value="o" style="shape=partialRectangle;html=1;whiteSpace=wrap;connectable=0;strokeColor=#82b366;overflow=hidden;fillColor=#d5e8d4;top=0;left=0;bottom=0;right=0;pointerEvents=1;fontSize=16;" vertex="1" parent="EKwU7zrqf9ErRtjPEEoi-87">
          <mxGeometry x="36" width="38" height="20" as="geometry">
            <mxRectangle width="38" height="20" as="alternateBounds" />
          </mxGeometry>
        </mxCell>
        <mxCell id="EKwU7zrqf9ErRtjPEEoi-90" value="" style="shape=partialRectangle;html=1;whiteSpace=wrap;connectable=0;strokeColor=inherit;overflow=hidden;fillColor=none;top=0;left=0;bottom=0;right=0;pointerEvents=1;fontSize=16;" vertex="1" parent="EKwU7zrqf9ErRtjPEEoi-87">
          <mxGeometry x="74" width="36" height="20" as="geometry">
            <mxRectangle width="36" height="20" as="alternateBounds" />
          </mxGeometry>
        </mxCell>
        <mxCell id="EKwU7zrqf9ErRtjPEEoi-91" value="" style="shape=table;startSize=0;container=1;collapsible=0;childLayout=tableLayout;fontSize=16;" vertex="1" parent="1">
          <mxGeometry x="360" y="330" width="110" height="80" as="geometry" />
        </mxCell>
        <mxCell id="EKwU7zrqf9ErRtjPEEoi-92" value="" style="shape=tableRow;horizontal=0;startSize=0;swimlaneHead=0;swimlaneBody=0;strokeColor=inherit;top=0;left=0;bottom=0;right=0;collapsible=0;dropTarget=0;fillColor=none;points=[[0,0.5],[1,0.5]];portConstraint=eastwest;fontSize=16;" vertex="1" parent="EKwU7zrqf9ErRtjPEEoi-91">
          <mxGeometry width="110" height="20" as="geometry" />
        </mxCell>
        <mxCell id="EKwU7zrqf9ErRtjPEEoi-93" value="o" style="shape=partialRectangle;html=1;whiteSpace=wrap;connectable=0;strokeColor=#82b366;overflow=hidden;fillColor=#d5e8d4;top=0;left=0;bottom=0;right=0;pointerEvents=1;fontSize=16;" vertex="1" parent="EKwU7zrqf9ErRtjPEEoi-92">
          <mxGeometry width="36" height="20" as="geometry">
            <mxRectangle width="36" height="20" as="alternateBounds" />
          </mxGeometry>
        </mxCell>
        <mxCell id="EKwU7zrqf9ErRtjPEEoi-94" value="" style="shape=partialRectangle;html=1;whiteSpace=wrap;connectable=0;strokeColor=inherit;overflow=hidden;fillColor=none;top=0;left=0;bottom=0;right=0;pointerEvents=1;fontSize=16;" vertex="1" parent="EKwU7zrqf9ErRtjPEEoi-92">
          <mxGeometry x="36" width="38" height="20" as="geometry">
            <mxRectangle width="38" height="20" as="alternateBounds" />
          </mxGeometry>
        </mxCell>
        <mxCell id="EKwU7zrqf9ErRtjPEEoi-95" value="o" style="shape=partialRectangle;html=1;whiteSpace=wrap;connectable=0;strokeColor=#82b366;overflow=hidden;fillColor=#d5e8d4;top=0;left=0;bottom=0;right=0;pointerEvents=1;fontSize=16;" vertex="1" parent="EKwU7zrqf9ErRtjPEEoi-92">
          <mxGeometry x="74" width="36" height="20" as="geometry">
            <mxRectangle width="36" height="20" as="alternateBounds" />
          </mxGeometry>
        </mxCell>
        <mxCell id="EKwU7zrqf9ErRtjPEEoi-96" value="" style="shape=tableRow;horizontal=0;startSize=0;swimlaneHead=0;swimlaneBody=0;strokeColor=inherit;top=0;left=0;bottom=0;right=0;collapsible=0;dropTarget=0;fillColor=none;points=[[0,0.5],[1,0.5]];portConstraint=eastwest;fontSize=16;" vertex="1" parent="EKwU7zrqf9ErRtjPEEoi-91">
          <mxGeometry y="20" width="110" height="20" as="geometry" />
        </mxCell>
        <mxCell id="EKwU7zrqf9ErRtjPEEoi-97" value="" style="shape=partialRectangle;html=1;whiteSpace=wrap;connectable=0;strokeColor=inherit;overflow=hidden;fillColor=none;top=0;left=0;bottom=0;right=0;pointerEvents=1;fontSize=16;" vertex="1" parent="EKwU7zrqf9ErRtjPEEoi-96">
          <mxGeometry width="36" height="20" as="geometry">
            <mxRectangle width="36" height="20" as="alternateBounds" />
          </mxGeometry>
        </mxCell>
        <mxCell id="EKwU7zrqf9ErRtjPEEoi-98" value="o" style="shape=partialRectangle;html=1;whiteSpace=wrap;connectable=0;strokeColor=#82b366;overflow=hidden;fillColor=#d5e8d4;top=0;left=0;bottom=0;right=0;pointerEvents=1;fontSize=16;" vertex="1" parent="EKwU7zrqf9ErRtjPEEoi-96">
          <mxGeometry x="36" width="38" height="20" as="geometry">
            <mxRectangle width="38" height="20" as="alternateBounds" />
          </mxGeometry>
        </mxCell>
        <mxCell id="EKwU7zrqf9ErRtjPEEoi-99" value="" style="shape=partialRectangle;html=1;whiteSpace=wrap;connectable=0;strokeColor=inherit;overflow=hidden;fillColor=none;top=0;left=0;bottom=0;right=0;pointerEvents=1;fontSize=16;" vertex="1" parent="EKwU7zrqf9ErRtjPEEoi-96">
          <mxGeometry x="74" width="36" height="20" as="geometry">
            <mxRectangle width="36" height="20" as="alternateBounds" />
          </mxGeometry>
        </mxCell>
        <mxCell id="EKwU7zrqf9ErRtjPEEoi-100" value="" style="shape=tableRow;horizontal=0;startSize=0;swimlaneHead=0;swimlaneBody=0;strokeColor=inherit;top=0;left=0;bottom=0;right=0;collapsible=0;dropTarget=0;fillColor=none;points=[[0,0.5],[1,0.5]];portConstraint=eastwest;fontSize=16;" vertex="1" parent="EKwU7zrqf9ErRtjPEEoi-91">
          <mxGeometry y="40" width="110" height="20" as="geometry" />
        </mxCell>
        <mxCell id="EKwU7zrqf9ErRtjPEEoi-101" value="o" style="shape=partialRectangle;html=1;whiteSpace=wrap;connectable=0;strokeColor=#82b366;overflow=hidden;fillColor=#d5e8d4;top=0;left=0;bottom=0;right=0;pointerEvents=1;fontSize=16;" vertex="1" parent="EKwU7zrqf9ErRtjPEEoi-100">
          <mxGeometry width="36" height="20" as="geometry">
            <mxRectangle width="36" height="20" as="alternateBounds" />
          </mxGeometry>
        </mxCell>
        <mxCell id="EKwU7zrqf9ErRtjPEEoi-102" value="" style="shape=partialRectangle;html=1;whiteSpace=wrap;connectable=0;strokeColor=inherit;overflow=hidden;fillColor=none;top=0;left=0;bottom=0;right=0;pointerEvents=1;fontSize=16;" vertex="1" parent="EKwU7zrqf9ErRtjPEEoi-100">
          <mxGeometry x="36" width="38" height="20" as="geometry">
            <mxRectangle width="38" height="20" as="alternateBounds" />
          </mxGeometry>
        </mxCell>
        <mxCell id="EKwU7zrqf9ErRtjPEEoi-103" value="o" style="shape=partialRectangle;html=1;whiteSpace=wrap;connectable=0;strokeColor=#82b366;overflow=hidden;fillColor=#d5e8d4;top=0;left=0;bottom=0;right=0;pointerEvents=1;fontSize=16;" vertex="1" parent="EKwU7zrqf9ErRtjPEEoi-100">
          <mxGeometry x="74" width="36" height="20" as="geometry">
            <mxRectangle width="36" height="20" as="alternateBounds" />
          </mxGeometry>
        </mxCell>
        <mxCell id="EKwU7zrqf9ErRtjPEEoi-104" value="" style="shape=tableRow;horizontal=0;startSize=0;swimlaneHead=0;swimlaneBody=0;strokeColor=inherit;top=0;left=0;bottom=0;right=0;collapsible=0;dropTarget=0;fillColor=none;points=[[0,0.5],[1,0.5]];portConstraint=eastwest;fontSize=16;" vertex="1" parent="EKwU7zrqf9ErRtjPEEoi-91">
          <mxGeometry y="60" width="110" height="20" as="geometry" />
        </mxCell>
        <mxCell id="EKwU7zrqf9ErRtjPEEoi-105" value="" style="shape=partialRectangle;html=1;whiteSpace=wrap;connectable=0;strokeColor=inherit;overflow=hidden;fillColor=none;top=0;left=0;bottom=0;right=0;pointerEvents=1;fontSize=16;" vertex="1" parent="EKwU7zrqf9ErRtjPEEoi-104">
          <mxGeometry width="36" height="20" as="geometry">
            <mxRectangle width="36" height="20" as="alternateBounds" />
          </mxGeometry>
        </mxCell>
        <mxCell id="EKwU7zrqf9ErRtjPEEoi-106" value="o" style="shape=partialRectangle;html=1;whiteSpace=wrap;connectable=0;strokeColor=#82b366;overflow=hidden;fillColor=#d5e8d4;top=0;left=0;bottom=0;right=0;pointerEvents=1;fontSize=16;" vertex="1" parent="EKwU7zrqf9ErRtjPEEoi-104">
          <mxGeometry x="36" width="38" height="20" as="geometry">
            <mxRectangle width="38" height="20" as="alternateBounds" />
          </mxGeometry>
        </mxCell>
        <mxCell id="EKwU7zrqf9ErRtjPEEoi-107" value="" style="shape=partialRectangle;html=1;whiteSpace=wrap;connectable=0;strokeColor=inherit;overflow=hidden;fillColor=none;top=0;left=0;bottom=0;right=0;pointerEvents=1;fontSize=16;" vertex="1" parent="EKwU7zrqf9ErRtjPEEoi-104">
          <mxGeometry x="74" width="36" height="20" as="geometry">
            <mxRectangle width="36" height="20" as="alternateBounds" />
          </mxGeometry>
        </mxCell>
        <mxCell id="EKwU7zrqf9ErRtjPEEoi-110" value="" style="endArrow=classic;html=1;rounded=0;exitX=0.827;exitY=1.55;exitDx=0;exitDy=0;exitPerimeter=0;" edge="1" parent="1">
          <mxGeometry width="50" height="50" relative="1" as="geometry">
            <mxPoint x="360" y="251" as="sourcePoint" />
            <mxPoint x="359.03" y="310" as="targetPoint" />
          </mxGeometry>
        </mxCell>
        <mxCell id="EKwU7zrqf9ErRtjPEEoi-112" value="sampling &amp;amp;&lt;br&gt;reshaping" style="text;html=1;strokeColor=none;fillColor=none;align=center;verticalAlign=middle;whiteSpace=wrap;rounded=0;" vertex="1" parent="1">
          <mxGeometry x="289.03" y="260" width="60" height="30" as="geometry" />
        </mxCell>
        <mxCell id="EKwU7zrqf9ErRtjPEEoi-113" value="" style="endArrow=classic;html=1;rounded=0;" edge="1" parent="1">
          <mxGeometry width="50" height="50" relative="1" as="geometry">
            <mxPoint x="470" y="310" as="sourcePoint" />
            <mxPoint x="470" y="250" as="targetPoint" />
          </mxGeometry>
        </mxCell>
        <mxCell id="EKwU7zrqf9ErRtjPEEoi-114" value="reconstructing" style="text;html=1;strokeColor=none;fillColor=none;align=center;verticalAlign=middle;whiteSpace=wrap;rounded=0;" vertex="1" parent="1">
          <mxGeometry x="490" y="260" width="60" height="30" as="geometry" />
        </mxCell>
        <mxCell id="EKwU7zrqf9ErRtjPEEoi-115" value="" style="endArrow=classic;html=1;rounded=0;exitX=0.827;exitY=1.55;exitDx=0;exitDy=0;exitPerimeter=0;" edge="1" parent="1">
          <mxGeometry width="50" height="50" relative="1" as="geometry">
            <mxPoint x="360" y="421" as="sourcePoint" />
            <mxPoint x="359.03" y="480" as="targetPoint" />
          </mxGeometry>
        </mxCell>
        <mxCell id="EKwU7zrqf9ErRtjPEEoi-116" value="removing&lt;br&gt;missing values" style="text;html=1;strokeColor=none;fillColor=none;align=center;verticalAlign=middle;whiteSpace=wrap;rounded=0;" vertex="1" parent="1">
          <mxGeometry x="289.03" y="430" width="60" height="30" as="geometry" />
        </mxCell>
        <mxCell id="EKwU7zrqf9ErRtjPEEoi-117" value="" style="endArrow=classic;html=1;rounded=0;" edge="1" parent="1">
          <mxGeometry width="50" height="50" relative="1" as="geometry">
            <mxPoint x="470" y="480" as="sourcePoint" />
            <mxPoint x="470" y="420" as="targetPoint" />
          </mxGeometry>
        </mxCell>
        <mxCell id="EKwU7zrqf9ErRtjPEEoi-118" value="reconstructing" style="text;html=1;strokeColor=none;fillColor=none;align=center;verticalAlign=middle;whiteSpace=wrap;rounded=0;" vertex="1" parent="1">
          <mxGeometry x="490" y="430" width="60" height="30" as="geometry" />
        </mxCell>
      </root>
    </mxGraphModel>
  </diagram>
</mxfile>
